<svg id="Ebene_1" data-name="Ebene 1" xmlns="http://www.w3.org/2000/svg" viewBox="0 0 143.41 154.96"><defs><style>.cls-1{fill:#d63d2d;}</style></defs><path class="cls-1" d="M45.88,88.37a25,25,0,0,0-18.73,9H17.68C10.61,97.41,4,94,4,86.18c0-5.72-.21-25,8.76-25,1.48,0,8.83,6,18.37,6a28.37,28.37,0,0,0,9.4-1.62,34.41,34.41,0,0,0-.35,4.65,31.9,31.9,0,0,0,5.72,18.09Z"/><path class="cls-1" d="M121.56,133.38c0,11.45-7.56,18.31-18.87,18.31H40.93c-11.3,0-18.87-6.86-18.87-18.31,0-16,3.75-40.49,24.45-40.49,2.4,0,11.17,9.82,25.33,9.82s22.9-9.82,25.29-9.82C117.81,92.89,121.56,117.41,121.56,133.38Z"/><circle class="cls-1" cx="31.11" cy="43.14" r="18.09"/><circle class="cls-1" cx="71.81" cy="70.28" r="27.14"/><path class="cls-1" d="M139.65,86.18c0,7.84-6.64,11.23-13.71,11.23h-9.47a25,25,0,0,0-18.73-9,31.91,31.91,0,0,0,5.73-18.09,32.87,32.87,0,0,0-.36-4.65,28.17,28.17,0,0,0,9.41,1.62c9.53,0,16.88-6,18.37-6,9,0,8.76,19.23,8.76,24.95Z"/><circle class="cls-1" cx="112.52" cy="43.14" r="18.09"/><path class="cls-1" d="M87.73,21.31s-6.07-6.18-14.41-6.18c-8.16,0-16.23,6.21-16.23,6.21l-4.53-1.9V25a1.78,1.78,0,0,1,1.17,2.23,1.76,1.76,0,0,1-1.17,1.17L53.9,32.1H50l1.35-3.77A1.81,1.81,0,0,1,50.35,26a1.74,1.74,0,0,1,.92-.93V18.85l-6.61-2.73,29-13,26.6,13.16ZM73,18.26c8.39,0,12.51,4.45,12.51,4.45v9.22s-4.28,3.46-13.17,3.46-11.86-3.46-11.86-3.46V22.71S64.59,18.26,73,18.26Zm-.17,15.16c5.83,0,10.54-1.19,10.54-2.64s-4.71-2.64-10.54-2.64-10.55,1.18-10.55,2.64S67,33.42,72.82,33.42Z"/></svg>