<svg id="Ebene_1" data-name="Ebene 1" xmlns="http://www.w3.org/2000/svg" viewBox="0 0 143.41 154.67"><path d="M45.88,88.07a25,25,0,0,0-18.73,9.05H17.68C10.61,97.12,4,93.73,4,85.88c0-5.72-.21-24.94,8.76-24.94,1.48,0,8.83,6,18.37,6a28.11,28.11,0,0,0,9.4-1.62A34.53,34.53,0,0,0,40.15,70a31.9,31.9,0,0,0,5.72,18.09Z"/><path d="M121.56,133.09c0,11.44-7.56,18.3-18.87,18.3H40.93c-11.3,0-18.87-6.86-18.87-18.3,0-16,3.75-40.49,24.45-40.49,2.4,0,11.17,9.82,25.33,9.82s22.9-9.82,25.29-9.82C117.81,92.6,121.56,117.12,121.56,133.09Z"/><circle cx="31.11" cy="42.85" r="18.09"/><circle cx="71.81" cy="69.98" r="27.14"/><path d="M139.65,85.88c0,7.85-6.64,11.24-13.71,11.24h-9.47a25,25,0,0,0-18.73-9.05A31.91,31.91,0,0,0,103.47,70a33,33,0,0,0-.36-4.65A28.17,28.17,0,0,0,112.52,67c9.53,0,16.88-6,18.37-6,9,0,8.76,19.22,8.76,24.94Z"/><circle cx="112.52" cy="42.85" r="18.09"/><path d="M87.73,21s-6.07-6.17-14.41-6.17c-8.16,0-16.23,6.2-16.23,6.2l-4.53-1.89v5.52a1.77,1.77,0,0,1,0,3.39L53.9,31.8H50L51.3,28a1.79,1.79,0,0,1-.95-2.37,1.76,1.76,0,0,1,.92-.94V18.55l-6.61-2.73,29-13L100.24,16ZM73,18c8.39,0,12.51,4.45,12.51,4.45v9.23s-4.28,3.45-13.17,3.45-11.86-3.45-11.86-3.45V22.41S64.59,18,73,18Zm-.17,15.16c5.83,0,10.54-1.18,10.54-2.64s-4.71-2.63-10.54-2.63S62.27,29,62.27,30.48,67,33.12,72.82,33.12Z"/></svg>