<svg id="Ebene_1" data-name="Ebene 1" xmlns="http://www.w3.org/2000/svg" viewBox="0 0 254 80"><path d="M178.4,77.4a4.55,4.55,0,0,1-2-.5,3.86,3.86,0,0,1-1.9-3.3v-15A19.43,19.43,0,0,1,159,39.5V20.6A19.42,19.42,0,0,1,178.4,1.2h54.3a19.42,19.42,0,0,1,19.4,19.4V39.4a19.42,19.42,0,0,1-19.4,19.4H213l-32.7,18a3.29,3.29,0,0,1-1.9.6Zm0-68.4a11.61,11.61,0,0,0-11.6,11.6V39.4a11.71,11.71,0,0,0,11.7,11.7,3.9,3.9,0,0,1,3.9,3.9V66.9l27.8-15.3a4.14,4.14,0,0,1,1.9-.5h20.7a11.61,11.61,0,0,0,11.6-11.6V20.6A11.61,11.61,0,0,0,232.8,9Z"/><path d="M101.1,31.9A6,6,0,0,1,96.2,30a6.88,6.88,0,0,1-1.7-4.6V.8h5.7V25a1.75,1.75,0,0,0,2,2h2.2v4.8h-3.3Zm12.2-9.6a5.24,5.24,0,0,0,1.3,3.7,4.9,4.9,0,0,0,3.6,1.4,7.56,7.56,0,0,0,2.9-.5,7.65,7.65,0,0,0,2.2-1.6l3.4,3.4a12.75,12.75,0,0,1-3.8,2.7,11.42,11.42,0,0,1-4.8.9,12.45,12.45,0,0,1-4-.6,9.16,9.16,0,0,1-3.3-1.9,9.32,9.32,0,0,1-2.3-3.6,15.42,15.42,0,0,1-.8-5.6c0-3.7.9-6.5,2.7-8.5a10.26,10.26,0,0,1,14.5,0,11.16,11.16,0,0,1,2.6,7.8v2.5H113.3Zm8.5-5.2a8.4,8.4,0,0,0-.4-1.2,3.91,3.91,0,0,0-1.4-1.7,4.27,4.27,0,0,0-2.4-.6,4,4,0,0,0-3.8,2.3,5.64,5.64,0,0,0-.4,1.2c-.1.4-.1.8-.2,1.3h8.6A2.85,2.85,0,0,0,121.8,17.1ZM144,15.3a4.06,4.06,0,0,0-1.4-1A4.15,4.15,0,0,0,141,14a3.41,3.41,0,0,0-2.5,1.1,4.33,4.33,0,0,0-1.1,3.1V31.9h-5.7V9.2h5.5v2.2a6.14,6.14,0,0,1,2.4-1.7,7.25,7.25,0,0,1,3.3-.7,9.43,9.43,0,0,1,3,.5,7.11,7.11,0,0,1,2.4,1.7L144,15.3ZM16.6,30.2a11.48,11.48,0,0,1-6.9,1.9,17.27,17.27,0,0,1-5.4-.7A8.5,8.5,0,0,1,0,28.8l3.7-3.7a6.83,6.83,0,0,0,2.8,1.7,11.24,11.24,0,0,0,3.2.4,6.09,6.09,0,0,0,2.8-.6,1.92,1.92,0,0,0,1.2-1.8,1.68,1.68,0,0,0-.6-1.4,3.76,3.76,0,0,0-1.8-.7l-1.7-.2-1.8-.2a8.42,8.42,0,0,1-4.9-1.8A5.8,5.8,0,0,1,1.2,16a6.46,6.46,0,0,1,2.5-5.3A9.94,9.94,0,0,1,9.9,8.8a18.51,18.51,0,0,1,5,.6,9.47,9.47,0,0,1,3.7,2l-3.5,3.5a5.61,5.61,0,0,0-2.3-1.2,13.86,13.86,0,0,0-3-.3,3.84,3.84,0,0,0-2.4.6,1.9,1.9,0,0,0-.8,1.5,2.11,2.11,0,0,0,.5,1.3,2.81,2.81,0,0,0,1.9.7l1.8.2,1.8.2a8.49,8.49,0,0,1,5.1,2,6.35,6.35,0,0,1,1.7,4.6C19.3,27.1,18.4,29,16.6,30.2Zm16.5,1.9a10.88,10.88,0,0,1-3.6-.6,8,8,0,0,1-3.2-1.9A9.48,9.48,0,0,1,23.9,26a15.28,15.28,0,0,1-.9-5.6,15.66,15.66,0,0,1,.9-5.6,9.48,9.48,0,0,1,2.4-3.6,9.68,9.68,0,0,1,3.2-1.9,11.33,11.33,0,0,1,3.6-.6,10.88,10.88,0,0,1,4.2.7,10.37,10.37,0,0,1,3.3,2.3l-3.8,3.8a9.57,9.57,0,0,0-1.7-1.4,4.06,4.06,0,0,0-1.9-.4A3.93,3.93,0,0,0,30,15.2a8.1,8.1,0,0,0-1.3,5c0,2.3.4,4,1.3,5.1a3.93,3.93,0,0,0,3.2,1.5,3.81,3.81,0,0,0,1.9-.4A5.26,5.26,0,0,0,36.8,25l3.8,3.8A9.39,9.39,0,0,1,33.1,32.1ZM58,31.9V18a4.17,4.17,0,0,0-1.1-3.1,4,4,0,0,0-2.6-1,3.54,3.54,0,0,0-2.6,1,4.08,4.08,0,0,0-1.1,3V31.8H45V.8h5.7V11.2a7.3,7.3,0,0,1,5.4-2.4,7.09,7.09,0,0,1,5.6,2.3,8.86,8.86,0,0,1,2,6V31.8H58Zm24.8,0V29.8a6.54,6.54,0,0,1-2.6,1.7,8.15,8.15,0,0,1-3.1.6,7.65,7.65,0,0,1-5.4-2,6.42,6.42,0,0,1-1.8-2.9,12.5,12.5,0,0,1-.5-3.6V9.2h5.7V22.9A4,4,0,0,0,76.2,26a3.54,3.54,0,0,0,2.6,1,3.94,3.94,0,0,0,2.7-1,4.17,4.17,0,0,0,1.1-3.1V9.2h5.7V31.9ZM71.7,5.4V0h4.8V5.4Zm9.6,0V0h4.8V5.4Z"/><path d="M19.9,69.4a8.56,8.56,0,0,1-2,3.6A10,10,0,0,1,15,75a10.33,10.33,0,0,1-4.1.8A10.33,10.33,0,0,1,6.8,75a8.81,8.81,0,0,1-2.9-2,7.16,7.16,0,0,1-2-3.6,19.82,19.82,0,0,1-.5-5.3,25,25,0,0,1,.5-5.3,8.56,8.56,0,0,1,2-3.6,10,10,0,0,1,2.9-2,10.33,10.33,0,0,1,4.1-.8,10.33,10.33,0,0,1,4.1.8,7.87,7.87,0,0,1,2.9,2,7.16,7.16,0,0,1,2,3.6,19.82,19.82,0,0,1,.5,5.3A16.73,16.73,0,0,1,19.9,69.4Zm-5.3-8.7a3.56,3.56,0,0,0-1.1-2.1,3.62,3.62,0,0,0-2.7-1,3.39,3.39,0,0,0-2.6,1,3.47,3.47,0,0,0-1,2.1,19.42,19.42,0,0,0,0,6.8,4.13,4.13,0,0,0,1,2.1,3.39,3.39,0,0,0,2.6,1,3.62,3.62,0,0,0,2.7-1,4.27,4.27,0,0,0,1.1-2.1,16.73,16.73,0,0,0,.2-3.4A28.17,28.17,0,0,0,14.6,60.7ZM39.1,75.4V61.7A4,4,0,0,0,38,58.6a3.54,3.54,0,0,0-2.6-1,3.94,3.94,0,0,0-2.7,1,4.17,4.17,0,0,0-1.1,3.1V75.4H25.9V52.7h5.5v2.1A6.54,6.54,0,0,1,34,53.1a8.15,8.15,0,0,1,3.1-.6,7.65,7.65,0,0,1,5.4,2,6.42,6.42,0,0,1,1.8,2.9,12.5,12.5,0,0,1,.5,3.6V75.5H39.1Zm18.2,0a6,6,0,0,1-4.9-1.9,6.88,6.88,0,0,1-1.7-4.6V44.4h5.7V68.6a1.75,1.75,0,0,0,2,2h2.2v4.8Zm7.6-26.6V44.2h5.8v4.6ZM65,75.4V52.7h5.7V75.4Zm25.2,0V61.7a4,4,0,0,0-1.1-3.1,3.54,3.54,0,0,0-2.6-1,3.94,3.94,0,0,0-2.7,1,4.17,4.17,0,0,0-1.1,3.1V75.4H77V52.7h5.5v2.1a6.54,6.54,0,0,1,2.6-1.7,8.15,8.15,0,0,1,3.1-.6,7.65,7.65,0,0,1,5.4,2,6.42,6.42,0,0,1,1.8,2.9,12.5,12.5,0,0,1,.5,3.6V75.5H90.2Zm16.2-9.6a5.24,5.24,0,0,0,1.3,3.7,4.9,4.9,0,0,0,3.6,1.4,7.56,7.56,0,0,0,2.9-.5,7.65,7.65,0,0,0,2.2-1.6l3.4,3.4a10.62,10.62,0,0,1-8.6,3.5,12.45,12.45,0,0,1-4-.6,9.16,9.16,0,0,1-3.3-1.9,9.32,9.32,0,0,1-2.3-3.6,15.42,15.42,0,0,1-.8-5.6c0-3.7.9-6.5,2.7-8.5a10.26,10.26,0,0,1,14.5,0,11.16,11.16,0,0,1,2.6,7.8v2.5Zm8.5-5.1a8.4,8.4,0,0,0-.4-1.2,3.91,3.91,0,0,0-1.4-1.7,4.27,4.27,0,0,0-2.4-.6,4,4,0,0,0-3.8,2.3,5.64,5.64,0,0,0-.4,1.2c-.1.4-.1.8-.2,1.3h8.6A2.82,2.82,0,0,0,114.9,60.7Z"/></svg>