<svg id="LOGO_BBS" xmlns="http://www.w3.org/2000/svg" width="474.07" height="114.539" viewBox="0 0 474.07 114.539">
  <path id="Pfad_242" data-name="Pfad 242" d="M471.388,79.025H23.865A23.9,23.9,0,0,1,0,55.2V14.311a2.681,2.681,0,0,1,5.363,0V55.2a18.52,18.52,0,0,0,18.5,18.467H471.388a2.681,2.681,0,0,1,0,5.363Z" transform="translate(0 9.16)" fill="#d63d2d"/>
  <path id="Pfad_243" data-name="Pfad 243" d="M178.166,69.844a2.681,2.681,0,0,1-2.681-2.681V22.078c0-8.938-8.652-16.715-18.5-16.715H44.091a2.681,2.681,0,1,1,0-5.363H156.982c12.71,0,23.865,10.315,23.865,22.078V67.162a2.681,2.681,0,0,1-2.681,2.681Z" transform="translate(32.617)" fill="#d63d2d"/>
  <path id="Pfad_244" data-name="Pfad 244" d="M35.232,60.481H13.78V11.106H34.392A18.627,18.627,0,0,1,46.351,14.52a11.459,11.459,0,0,1,4.237,9.492,11.227,11.227,0,0,1-2.109,6.865,12.013,12.013,0,0,1-5.7,4.183,12.156,12.156,0,0,1,6.65,4.129,11.924,11.924,0,0,1,2.288,7.633,12.245,12.245,0,0,1-4.38,10.118A18.86,18.86,0,0,1,35.232,60.481Zm-14.426-27.8H33.319q10.208,0,10.225-7.991T33.319,16.7H20.806Zm0,22.2H34.392c6.865,0,10.3-2.789,10.3-8.33s-3.432-8.277-10.3-8.277H20.806Z" transform="translate(10.854 8.719)"/>
  <path id="Pfad_245" data-name="Pfad 245" d="M61.952,60.482H40.5V11.107H61.058a18.627,18.627,0,0,1,12,3.414,11.459,11.459,0,0,1,4.237,9.492A11.334,11.334,0,0,1,75.2,30.878a12.156,12.156,0,0,1-5.756,4.2,12.138,12.138,0,0,1,6.668,4.129,11.906,11.906,0,0,1,2.378,7.633,12.245,12.245,0,0,1-4.38,10.118,18.824,18.824,0,0,1-12.156,3.522Zm-14.426-27.8H60.039q10.243,0,10.243-7.991T59.985,16.7H47.472Zm0,22.2H61.058c6.865,0,10.3-2.789,10.3-8.33s-3.379-8.277-10.3-8.277H47.472Z" transform="translate(31.9 8.718)"/>
  <path id="Pfad_246" data-name="Pfad 246" d="M84.689,61.4a37.683,37.683,0,0,1-9.278-1.126,24.419,24.419,0,0,1-7.741-3.361,3.575,3.575,0,0,1-1.359-4.576,2.878,2.878,0,0,1,1.609-1.5,2.682,2.682,0,0,1,2.485.483,23.543,23.543,0,0,0,6.65,2.985,29.461,29.461,0,0,0,7.633.947,14.605,14.605,0,0,0,8.8-2.145,6.614,6.614,0,0,0,2.932-5.577,5.363,5.363,0,0,0-2.038-4.451,16.5,16.5,0,0,0-6.9-2.628l-7.49-1.537a19.789,19.789,0,0,1-9.922-4.63,11.691,11.691,0,0,1-3.236-8.76,13.354,13.354,0,0,1,2.342-7.776,15.517,15.517,0,0,1,6.561-5.22A23.812,23.812,0,0,1,85.4,10.733a28.6,28.6,0,0,1,8.152,1.126,20.808,20.808,0,0,1,6.829,3.432,3.057,3.057,0,0,1,1.394,2.038,3.218,3.218,0,0,1-.34,2.2,2.807,2.807,0,0,1-1.68,1.376,3.164,3.164,0,0,1-2.592-.572,19.486,19.486,0,0,0-5.613-2.628,22.972,22.972,0,0,0-6.221-.8,13.229,13.229,0,0,0-8.241,2.324,7.365,7.365,0,0,0-3.039,6.15,6.06,6.06,0,0,0,1.895,4.7,13.3,13.3,0,0,0,6.293,2.592l7.437,1.537A22.542,22.542,0,0,1,100.1,38.728a10.422,10.422,0,0,1,3.468,8.241,12.639,12.639,0,0,1-2.306,7.562,15,15,0,0,1-6.507,5.023A25.778,25.778,0,0,1,84.689,61.4Z" transform="translate(51.96 8.448)"/>
  <path id="Pfad_247" data-name="Pfad 247" d="M105.591,61.149a3.254,3.254,0,0,1-3.575-3.718v-42.9a3.647,3.647,0,1,1,7.294,0v42.9a3.254,3.254,0,0,1-3.718,3.718Z" transform="translate(80.325 8.57)"/>
  <path id="Pfad_248" data-name="Pfad 248" d="M126.139,46.468a.858.858,0,0,1-.965-.965V32.309a.858.858,0,0,1,.965-.965h5.077a5.6,5.6,0,0,1,3.575,1.037,3.575,3.575,0,0,1,1.269,2.9,3.45,3.45,0,0,1-.644,2.127,3.575,3.575,0,0,1-1.788,1.287,3.861,3.861,0,0,1,2.056,1.269,3.575,3.575,0,0,1,.733,2.342,3.772,3.772,0,0,1-1.3,3.093,5.649,5.649,0,0,1-3.683,1.073Zm.751-8.366h4.076c2.27,0,3.414-.894,3.414-2.664s-1.144-2.681-3.414-2.681H126.89Zm0,6.936h4.416c2.288,0,3.432-.912,3.432-2.753s-1.144-2.771-3.432-2.771H126.89Z" transform="translate(98.588 24.681)"/>
  <path id="Pfad_249" data-name="Pfad 249" d="M138.358,44.678a5.238,5.238,0,0,1-3.9-1.466,5.363,5.363,0,0,1-1.448-3.933,6.06,6.06,0,0,1,.644-2.842,4.648,4.648,0,0,1,1.788-1.895,4.863,4.863,0,0,1,2.61-.679,4.2,4.2,0,0,1,3.325,1.359,5.453,5.453,0,0,1,1.2,3.736c0,.447-.25.661-.751.661h-7.151a3.844,3.844,0,0,0,1.037,2.717,3.575,3.575,0,0,0,2.61.93,5.7,5.7,0,0,0,1.43-.179,4.255,4.255,0,0,0,1.43-.644A.769.769,0,0,1,142,42.3a.7.7,0,0,1,.34.608.822.822,0,0,1-.447.679,5.059,5.059,0,0,1-1.68.8A7.151,7.151,0,0,1,138.358,44.678Zm-.286-9.528a3.021,3.021,0,0,0-2.324.912,4.13,4.13,0,0,0-1.019,2.431h6.328a3.915,3.915,0,0,0-.822-2.467,2.681,2.681,0,0,0-2.109-.876Z" transform="translate(104.764 26.667)"/>
  <path id="Pfad_250" data-name="Pfad 250" d="M140.92,44.645a.787.787,0,0,1-.876-.894V34.813c0-.59.268-.876.84-.876a.769.769,0,0,1,.858.876v1.108a3.146,3.146,0,0,1,1.323-1.52,4.773,4.773,0,0,1,2.145-.572c.465,0,.7.2.733.7s-.215.787-.769.84h-.358a3.45,3.45,0,0,0-2.252.93,3.11,3.11,0,0,0-.769,2.2v5.2a.787.787,0,0,1-.876.947Z" transform="translate(110.3 26.647)"/>
  <path id="Pfad_251" data-name="Pfad 251" d="M148.3,44.667c-2.5,0-3.754-1.394-3.754-4.147V34.764a.894.894,0,0,1,1.788,0V40.5a3.128,3.128,0,0,0,.572,2.056,2.217,2.217,0,0,0,1.788.661,2.825,2.825,0,0,0,2.163-.894,3.236,3.236,0,0,0,.84-2.36v-5.2a.871.871,0,1,1,1.734,0V43.7c0,.59-.268.894-.822.894a.784.784,0,0,1-.858-.894V42.683a3.575,3.575,0,0,1-1.394,1.448,3.933,3.933,0,0,1-2.056.536Z" transform="translate(113.856 26.678)"/>
  <path id="Pfad_252" data-name="Pfad 252" d="M153.675,46.626c-.572,0-.858-.3-.858-.894V37.4h-1.376c-.5,0-.751-.232-.751-.679s.25-.679.751-.679h1.376v-.358a3.879,3.879,0,0,1,3.933-4.362h.626a.679.679,0,0,1,.554.161.751.751,0,0,1,.179.465.769.769,0,0,1-.143.483.483.483,0,0,1-.429.232h-.483a2.753,2.753,0,0,0-1.913.787,3.021,3.021,0,0,0-.59,2.02v.644h2.324c.5,0,.751.232.751.679s-.25.679-.751.679h-2.324V45.8a.787.787,0,0,1-.876.822Z" transform="translate(118.692 24.666)"/>
  <path id="Pfad_253" data-name="Pfad 253" d="M159.542,44.678a8.1,8.1,0,0,1-1.949-.25,6.078,6.078,0,0,1-1.788-.8.681.681,0,1,1,.608-1.216,6.132,6.132,0,0,0,1.627.733,6.615,6.615,0,0,0,1.555.2,3.075,3.075,0,0,0,1.788-.447,1.466,1.466,0,0,0,.626-1.233,1.2,1.2,0,0,0-.411-.947,3.11,3.11,0,0,0-1.287-.554l-1.949-.429c-1.788-.375-2.664-1.287-2.664-2.735a2.7,2.7,0,0,1,1.126-2.27,4.737,4.737,0,0,1,2.95-.858,5.917,5.917,0,0,1,1.788.25,4.291,4.291,0,0,1,1.537.769.626.626,0,0,1,.322.626.787.787,0,0,1-.322.572.608.608,0,0,1-.7,0,5.363,5.363,0,0,0-1.323-.644,4.72,4.72,0,0,0-1.305-.2,2.914,2.914,0,0,0-1.788.483,1.466,1.466,0,0,0-.626,1.233c0,.8.536,1.323,1.591,1.537l1.949.411a4.308,4.308,0,0,1,2.092.965,2.288,2.288,0,0,1,.7,1.788,2.646,2.646,0,0,1-1.126,2.252A5.041,5.041,0,0,1,159.542,44.678Z" transform="translate(122.425 26.668)"/>
  <path id="Pfad_254" data-name="Pfad 254" d="M167.054,46.734a4.326,4.326,0,0,1-2.163-.554,3.468,3.468,0,0,1-1.394-1.52v1.126c0,.59-.286.894-.858.894s-.858-.3-.858-.894V32.147c0-.59.286-.894.858-.894a.787.787,0,0,1,.876.894v5.81a3.4,3.4,0,0,1,1.394-1.448,4.344,4.344,0,0,1,2.145-.536,4.2,4.2,0,0,1,4.058,2.467,6.775,6.775,0,0,1,.554,2.878,6.687,6.687,0,0,1-.554,2.86,4.308,4.308,0,0,1-4.058,2.556Zm-.358-1.412a2.914,2.914,0,0,0,2.342-1.037,4.416,4.416,0,0,0,.876-2.968,4.469,4.469,0,0,0-.876-2.985,3.2,3.2,0,0,0-4.684,0,4.469,4.469,0,0,0-.876,2.985,4.416,4.416,0,0,0,.876,2.968,2.914,2.914,0,0,0,2.342,1.037Z" transform="translate(127.428 24.612)"/>
  <path id="Pfad_255" data-name="Pfad 255" d="M170.014,33.5c-.769,0-1.144-.358-1.144-1.073s.375-1.055,1.144-1.055,1.144.358,1.144,1.055S170.765,33.5,170.014,33.5Zm0,13.05c-.572,0-.858-.322-.858-.947V36.822q0-.912.858-.912c.59,0,.876.3.876.912V45.6C170.89,46.225,170.6,46.547,170.014,46.547Z" transform="translate(133.012 24.709)"/>
  <path id="Pfad_256" data-name="Pfad 256" d="M175.239,46.734a2.985,2.985,0,0,1-2.36-.947,3.987,3.987,0,0,1-.8-2.7V32.147c0-.59.286-.894.858-.894a.787.787,0,0,1,.876.894V42.872q0,2.306,1.788,2.306h.644q.25,0,.322.107a.894.894,0,0,1,.107.518.769.769,0,0,1-.733.84h-.358Z" transform="translate(135.528 24.612)"/>
  <path id="Pfad_257" data-name="Pfad 257" d="M180.033,46.734a4.4,4.4,0,0,1-2.431-.679,4.255,4.255,0,0,1-1.609-1.877,6.685,6.685,0,0,1-.572-2.86,6.775,6.775,0,0,1,.572-2.878,4.362,4.362,0,0,1,1.609-1.877,4.523,4.523,0,0,1,2.431-.644,4.273,4.273,0,0,1,2.163.536,3.343,3.343,0,0,1,1.412,1.5v-5.81a.787.787,0,0,1,.876-.894c.572,0,.858.3.858.894v13.64c0,.59-.286.894-.858.894s-.858-.3-.858-.894V44.66a3.575,3.575,0,0,1-1.394,1.52,4.272,4.272,0,0,1-2.2.554Zm.358-1.412a2.9,2.9,0,0,0,2.342-1.037,4.416,4.416,0,0,0,.876-2.968,4.469,4.469,0,0,0-.876-2.985,3.2,3.2,0,0,0-4.684,0,4.576,4.576,0,0,0-.876,2.985,4.523,4.523,0,0,0,.876,2.967,2.86,2.86,0,0,0,2.4,1.037Z" transform="translate(138.171 24.612)"/>
  <path id="Pfad_258" data-name="Pfad 258" d="M188.06,44.662A4.988,4.988,0,0,1,182.7,39.3a6.06,6.06,0,0,1,.644-2.842,4.648,4.648,0,0,1,1.788-1.895,4.791,4.791,0,0,1,2.592-.679,4.219,4.219,0,0,1,3.343,1.359,5.542,5.542,0,0,1,1.2,3.736c0,.447-.25.661-.751.661h-7.151a3.915,3.915,0,0,0,1.019,2.717,3.575,3.575,0,0,0,2.628.93,5.7,5.7,0,0,0,1.43-.179,4.344,4.344,0,0,0,1.412-.644.787.787,0,0,1,.822-.143.715.715,0,0,1,.358.608.822.822,0,0,1-.447.679,5.363,5.363,0,0,1-1.68.8,7.276,7.276,0,0,1-1.841.25Zm-.286-9.528a3.075,3.075,0,0,0-2.342.912,4,4,0,0,0-1,2.431h6.328a3.915,3.915,0,0,0-.84-2.467,2.646,2.646,0,0,0-2.145-.876Z" transform="translate(143.891 26.683)"/>
  <path id="Pfad_259" data-name="Pfad 259" d="M190.548,44.6c-.572,0-.858-.3-.858-.894V34.769c0-.59.286-.876.84-.876a.769.769,0,0,1,.858.876v1.108a3.361,3.361,0,0,1,1.466-1.484,4.594,4.594,0,0,1,2.127-.483c2.467,0,3.7,1.359,3.7,4.112v5.756c0,.59-.286.894-.858.894a.787.787,0,0,1-.876-.894V38.058a3.289,3.289,0,0,0-.572-2.127,2.181,2.181,0,0,0-1.788-.679,3.021,3.021,0,0,0-2.288.894,3.236,3.236,0,0,0-.84,2.36v5.2a.787.787,0,0,1-.912.894Z" transform="translate(149.411 26.691)"/>
  <path id="Pfad_260" data-name="Pfad 260" d="M201.033,46.734a4.4,4.4,0,0,1-2.431-.679,4.254,4.254,0,0,1-1.609-1.877,6.686,6.686,0,0,1-.572-2.86,6.775,6.775,0,0,1,.572-2.878,4.362,4.362,0,0,1,1.609-1.877,4.523,4.523,0,0,1,2.431-.644,4.272,4.272,0,0,1,2.163.536,3.254,3.254,0,0,1,1.412,1.5v-5.81a.787.787,0,0,1,.876-.894c.572,0,.858.3.858.894v13.64a.777.777,0,0,1-.858.894c-.572,0-.858-.3-.858-.894V44.66a3.468,3.468,0,0,1-1.394,1.52A4.272,4.272,0,0,1,201.033,46.734Zm.375-1.412a2.86,2.86,0,0,0,2.324-1.037,4.415,4.415,0,0,0,.894-2.968,4.469,4.469,0,0,0-.894-2.985,2.9,2.9,0,0,0-2.324-1.019,2.95,2.95,0,0,0-2.36,1.019,4.577,4.577,0,0,0-.858,2.985,4.523,4.523,0,0,0,.858,2.968,2.9,2.9,0,0,0,2.324,1.037Z" transform="translate(154.711 24.612)"/>
  <path id="Pfad_261" data-name="Pfad 261" d="M209,44.678a5,5,0,0,1-5.345-5.4,6.06,6.06,0,0,1,.626-2.842,4.648,4.648,0,0,1,1.788-1.895,4.862,4.862,0,0,1,2.61-.679A4.2,4.2,0,0,1,212,35.221a5.452,5.452,0,0,1,1.2,3.736c0,.447-.25.661-.751.661H205.3a3.915,3.915,0,0,0,1.019,2.717,3.575,3.575,0,0,0,2.628.93,5.7,5.7,0,0,0,1.43-.179,4.183,4.183,0,0,0,1.412-.644.8.8,0,0,1,.84-.143.733.733,0,0,1,.34.608.822.822,0,0,1-.447.679,5.239,5.239,0,0,1-1.68.8A7.276,7.276,0,0,1,209,44.678Zm-.286-9.528a3.075,3.075,0,0,0-2.342.912,4.13,4.13,0,0,0-1,2.431H211.7a4.022,4.022,0,0,0-.822-2.467A2.717,2.717,0,0,0,208.712,35.15Z" transform="translate(160.404 26.667)"/>
  <path id="Pfad_262" data-name="Pfad 262" d="M219.378,46.732a11.816,11.816,0,0,1-2.914-.375,7.669,7.669,0,0,1-2.342-1.108.965.965,0,0,1-.411-.572.948.948,0,0,1,0-.59.786.786,0,0,1,.429-.375.715.715,0,0,1,.644.143,6.276,6.276,0,0,0,2.056,1,9.511,9.511,0,0,0,2.467.3,4.737,4.737,0,0,0,2.86-.715,2.306,2.306,0,0,0,.93-1.913,1.788,1.788,0,0,0-.661-1.5,5.649,5.649,0,0,0-2.27-.876L218,39.742a6.043,6.043,0,0,1-3-1.394,3.575,3.575,0,0,1-1-2.61,4,4,0,0,1,.7-2.36,4.505,4.505,0,0,1,1.949-1.573,6.865,6.865,0,0,1,2.86-.554,8.1,8.1,0,0,1,2.521.375,6.49,6.49,0,0,1,2.109,1.126.84.84,0,0,1,.357.554.751.751,0,0,1-.089.554.733.733,0,0,1-.429.34.822.822,0,0,1-.661-.161,5.362,5.362,0,0,0-1.788-.947,7.382,7.382,0,0,0-2.038-.286,4.326,4.326,0,0,0-2.7.787,2.467,2.467,0,0,0-1,2.074,2.109,2.109,0,0,0,.626,1.627,4,4,0,0,0,2.074.876l2.217.483a7.151,7.151,0,0,1,3.218,1.359,3.11,3.11,0,0,1,1.037,2.485,3.754,3.754,0,0,1-.679,2.217,4.219,4.219,0,0,1-1.931,1.5A7.455,7.455,0,0,1,219.378,46.732Z" transform="translate(168.294 24.614)"/>
  <path id="Pfad_263" data-name="Pfad 263" d="M226.364,44.679A5.363,5.363,0,0,1,223.647,44a4.487,4.487,0,0,1-1.788-1.913,6.4,6.4,0,0,1-.626-2.9,5.47,5.47,0,0,1,1.359-3.9,4.827,4.827,0,0,1,3.718-1.43,5.363,5.363,0,0,1,1.609.25,4.308,4.308,0,0,1,1.52.8.626.626,0,0,1,.3.626.787.787,0,0,1-.358.59.644.644,0,0,1-.715-.089,3.575,3.575,0,0,0-1.162-.59,3.4,3.4,0,0,0-1.09-.179,3.164,3.164,0,0,0-2.521,1.019,4.326,4.326,0,0,0-.876,2.932,4.559,4.559,0,0,0,.876,2.95,3.075,3.075,0,0,0,2.521,1.073,3.933,3.933,0,0,0,1.09-.161,4.039,4.039,0,0,0,1.162-.608.572.572,0,0,1,.7,0,.751.751,0,0,1,.393.572.679.679,0,0,1-.322.626,4.362,4.362,0,0,1-1.5.8,5.541,5.541,0,0,1-1.573.2Z" transform="translate(174.251 26.667)"/>
  <path id="Pfad_264" data-name="Pfad 264" d="M228.288,46.68c-.572,0-.858-.3-.858-.894V32.147a.777.777,0,0,1,.858-.894.787.787,0,0,1,.876.894v5.667a3.576,3.576,0,0,1,1.448-1.412,4.5,4.5,0,0,1,2.092-.483c2.485,0,3.718,1.359,3.718,4.112v5.756c0,.59-.286.894-.858.894a.787.787,0,0,1-.876-.894V40.137a3.29,3.29,0,0,0-.572-2.127,2.181,2.181,0,0,0-1.788-.679,3,3,0,0,0-2.288.894,3.253,3.253,0,0,0-.858,2.36v5.2a.787.787,0,0,1-.894.894Z" transform="translate(179.137 24.612)"/>
  <path id="Pfad_265" data-name="Pfad 265" d="M238.218,44.667c-2.485,0-3.754-1.394-3.754-4.147V34.764a.769.769,0,0,1,.858-.876.787.787,0,0,1,.894.876V40.5a3.146,3.146,0,0,0,.554,2.056,2.253,2.253,0,0,0,1.788.661,2.86,2.86,0,0,0,2.163-.894,3.307,3.307,0,0,0,.84-2.36v-5.2a.894.894,0,1,1,1.788,0V43.7c0,.59-.286.894-.84.894a.784.784,0,0,1-.858-.894V42.683a3.379,3.379,0,0,1-1.377,1.448,4.04,4.04,0,0,1-2.056.536Z" transform="translate(184.671 26.678)"/>
  <path id="Pfad_266" data-name="Pfad 266" d="M244.666,46.735a2.95,2.95,0,0,1-2.36-.947,3.986,3.986,0,0,1-.822-2.7V32.148a.777.777,0,0,1,.858-.894.787.787,0,0,1,.894.894V42.874q0,2.306,1.788,2.306h.644a.322.322,0,0,1,.322.107.894.894,0,0,1,.107.518.769.769,0,0,1-.733.84h-.375Z" transform="translate(190.2 24.611)"/>
  <path id="Pfad_267" data-name="Pfad 267" d="M250.218,44.678a5,5,0,0,1-5.345-5.4,6.06,6.06,0,0,1,.643-2.842,4.648,4.648,0,0,1,1.788-1.895,4.827,4.827,0,0,1,2.61-.679,4.2,4.2,0,0,1,3.325,1.359,5.541,5.541,0,0,1,1.2,3.736c0,.447-.25.661-.751.661h-7.151a3.915,3.915,0,0,0,1.019,2.717,3.575,3.575,0,0,0,2.628.93,5.7,5.7,0,0,0,1.43-.179,4.183,4.183,0,0,0,1.412-.644c.34-.215.608-.268.822-.143a.715.715,0,0,1,.358.608.822.822,0,0,1-.447.679,5.238,5.238,0,0,1-1.68.8,7.275,7.275,0,0,1-1.859.286Zm-.286-9.528a3.075,3.075,0,0,0-2.342.912,4,4,0,0,0-1,2.431h6.328a4.023,4.023,0,0,0-.822-2.467A2.717,2.717,0,0,0,249.932,35.15Z" transform="translate(192.871 26.667)"/>
  <path id="Pfad_268" data-name="Pfad 268" d="M252.718,44.6c-.572,0-.858-.3-.858-.894V34.769c0-.59.286-.876.84-.876a.769.769,0,0,1,.858.876v1.108a3.45,3.45,0,0,1,1.466-1.484,4.6,4.6,0,0,1,2.127-.483c2.467,0,3.7,1.359,3.7,4.112v5.756a.777.777,0,0,1-.858.894.787.787,0,0,1-.876-.894V38.058a3.289,3.289,0,0,0-.572-2.181,2.181,2.181,0,0,0-1.788-.679,3.021,3.021,0,0,0-2.288.894,3.236,3.236,0,0,0-.84,2.36v5.2a.787.787,0,0,1-.912.947Z" transform="translate(198.38 26.691)"/>
  <path id="Pfad_269" data-name="Pfad 269" d="M263.291,46.678a.786.786,0,0,1-.876-.912V32.18c0-.626.3-.93.876-.93a.813.813,0,0,1,.894.93V45.766a.8.8,0,0,1-.894.912Z" transform="translate(206.685 24.614)"/>
  <path id="Pfad_270" data-name="Pfad 270" d="M129.294,68.734a4.362,4.362,0,0,1-2.431-.679,4.255,4.255,0,0,1-1.609-1.877,6.435,6.435,0,0,1-.572-2.86,6.507,6.507,0,0,1,.572-2.878,4.362,4.362,0,0,1,1.609-1.877,4.487,4.487,0,0,1,2.431-.644,4.2,4.2,0,0,1,2.145.536,3.289,3.289,0,0,1,1.394,1.484V54.147a.787.787,0,0,1,.876-.894c.572,0,.858.3.858.894v13.64c0,.59-.286.894-.858.894s-.858-.3-.858-.894V66.66a3.576,3.576,0,0,1-1.412,1.52A4.2,4.2,0,0,1,129.294,68.734Zm.358-1.412a2.9,2.9,0,0,0,2.342-1.037,4.415,4.415,0,0,0,.876-2.968,4.469,4.469,0,0,0-.876-2.985,3.2,3.2,0,0,0-4.684,0,4.469,4.469,0,0,0-.876,2.985,4.416,4.416,0,0,0,.876,2.968A2.86,2.86,0,0,0,129.651,67.322Z" transform="translate(98.204 41.94)"/>
  <path id="Pfad_271" data-name="Pfad 271" d="M137.018,66.678a5.238,5.238,0,0,1-3.9-1.466,5.363,5.363,0,0,1-1.448-3.933,6.06,6.06,0,0,1,.59-2.842,4.648,4.648,0,0,1,1.788-1.895,4.863,4.863,0,0,1,2.61-.679,4.2,4.2,0,0,1,3.325,1.359,5.453,5.453,0,0,1,1.2,3.736c0,.447-.25.661-.751.661h-7.151a3.933,3.933,0,0,0,1.037,2.717,3.575,3.575,0,0,0,2.61.93,5.846,5.846,0,0,0,1.448-.179,4.343,4.343,0,0,0,1.412-.644.787.787,0,0,1,.822-.143.7.7,0,0,1,.34.608.8.8,0,0,1-.429.679,5.363,5.363,0,0,1-1.7.8A7.149,7.149,0,0,1,137.018,66.678Zm-.268-9.528a3.039,3.039,0,0,0-2.342.912,4.13,4.13,0,0,0-1.019,2.431h6.328a3.808,3.808,0,0,0-.822-2.467,2.646,2.646,0,0,0-2.145-.876Z" transform="translate(103.708 43.996)"/>
  <path id="Pfad_272" data-name="Pfad 272" d="M142.2,66.678a8.1,8.1,0,0,1-1.949-.25,6.078,6.078,0,0,1-1.788-.8.681.681,0,1,1,.608-1.216,6.132,6.132,0,0,0,1.627.733,6.615,6.615,0,0,0,1.555.2,3.075,3.075,0,0,0,1.788-.447,1.466,1.466,0,0,0,.626-1.233,1.2,1.2,0,0,0-.411-.947,3.11,3.11,0,0,0-1.287-.554l-1.949-.429c-1.788-.375-2.664-1.287-2.664-2.735a2.7,2.7,0,0,1,1.126-2.27,4.737,4.737,0,0,1,2.95-.858,5.917,5.917,0,0,1,1.788.25,4.291,4.291,0,0,1,1.537.769.626.626,0,0,1,.322.626.787.787,0,0,1-.322.572.608.608,0,0,1-.7,0,5.363,5.363,0,0,0-1.323-.644,4.719,4.719,0,0,0-1.3-.2,2.914,2.914,0,0,0-1.788.483,1.466,1.466,0,0,0-.626,1.233c0,.8.536,1.323,1.591,1.537l1.949.411a4.308,4.308,0,0,1,2.092.965,2.288,2.288,0,0,1,.7,1.788,2.646,2.646,0,0,1-1.126,2.252,5.041,5.041,0,0,1-3.021.769Z" transform="translate(108.767 43.996)"/>
  <path id="Pfad_273" data-name="Pfad 273" d="M148.317,68.511a.822.822,0,0,1-.894-.93V54.192c0-.608.286-.912.876-.912s.876.3.876.912V66.956h7.043a.787.787,0,1,1,0,1.555Z" transform="translate(116.113 41.967)"/>
  <path id="Pfad_274" data-name="Pfad 274" d="M157.3,66.744a4.255,4.255,0,0,1-1.931-.429,3.575,3.575,0,0,1-1.341-1.144,2.9,2.9,0,0,1-.483-1.627,2.61,2.61,0,0,1,.59-1.788,3.379,3.379,0,0,1,1.949-.947,18.305,18.305,0,0,1,3.718-.3h.7v-.751a2.771,2.771,0,0,0-.554-1.913,2.27,2.27,0,0,0-1.788-.59,5.363,5.363,0,0,0-1.5.2,7.044,7.044,0,0,0-1.591.608.59.59,0,0,1-.608,0,.644.644,0,0,1-.34-.375.751.751,0,0,1,0-.554.769.769,0,0,1,.411-.447A7.812,7.812,0,0,1,156.312,56a7.954,7.954,0,0,1,1.788-.215,4.076,4.076,0,0,1,3,.983,4.237,4.237,0,0,1,.965,3.057v5.828c0,.59-.268.894-.787.894a.787.787,0,0,1-.84-.894V64.6a3.182,3.182,0,0,1-1.251,1.448A3.682,3.682,0,0,1,157.3,66.744Zm.268-1.323a2.681,2.681,0,0,0,2.109-.894,3.236,3.236,0,0,0,.822-2.252v-.644h-.679a18.359,18.359,0,0,0-2.735.161,2.539,2.539,0,0,0-1.394.554,1.537,1.537,0,0,0-.393,1.09,1.913,1.913,0,0,0,.608,1.43,2.36,2.36,0,0,0,1.663.554Z" transform="translate(120.936 43.93)"/>
  <path id="Pfad_275" data-name="Pfad 275" d="M161.018,66.6c-.572,0-.858-.3-.858-.894V56.769c0-.59.286-.876.84-.876a.769.769,0,0,1,.858.876v1.108a3.361,3.361,0,0,1,1.466-1.484,4.523,4.523,0,0,1,2.109-.483c2.485,0,3.718,1.359,3.718,4.112v5.756c0,.59-.286.894-.858.894a.787.787,0,0,1-.876-.894v-5.72a3.289,3.289,0,0,0-.572-2.181,2.181,2.181,0,0,0-1.788-.679,3,3,0,0,0-2.288.894,3.254,3.254,0,0,0-.858,2.36v5.2a.787.787,0,0,1-.894.947Z" transform="translate(126.152 44.02)"/>
  <path id="Pfad_276" data-name="Pfad 276" d="M171.234,68.734a4.362,4.362,0,0,1-2.431-.679,4.255,4.255,0,0,1-1.609-1.877,6.436,6.436,0,0,1-.572-2.86,6.507,6.507,0,0,1,.572-2.878,4.362,4.362,0,0,1,1.609-1.877,4.487,4.487,0,0,1,2.431-.644,4.2,4.2,0,0,1,2.145.536,3.29,3.29,0,0,1,1.394,1.484V54.147a.787.787,0,0,1,.876-.894c.572,0,.858.3.858.894v13.64c0,.59-.286.894-.858.894s-.858-.3-.858-.894V66.66a3.575,3.575,0,0,1-1.412,1.52,4.2,4.2,0,0,1-2.145.554Zm.358-1.412a2.9,2.9,0,0,0,2.342-1.037,4.415,4.415,0,0,0,.876-2.968,4.469,4.469,0,0,0-.876-2.985,3.2,3.2,0,0,0-4.684,0,4.469,4.469,0,0,0-.876,2.985,4.416,4.416,0,0,0,.876,2.968A2.86,2.86,0,0,0,171.591,67.322Z" transform="translate(131.238 41.94)"/>
  <path id="Pfad_277" data-name="Pfad 277" d="M174.828,68.681c-.572,0-.858-.3-.858-.894V54.148c0-.59.286-.894.858-.894a.787.787,0,0,1,.894.894v8.6h0l4.4-4.2a2.788,2.788,0,0,1,.518-.447,1.251,1.251,0,0,1,.626-.143.644.644,0,0,1,.661.393.733.733,0,0,1-.215.8L177.6,63.122l4.594,4.308c.286.286.375.572.232.84a.679.679,0,0,1-.661.411,1.144,1.144,0,0,1-.644-.161,3.9,3.9,0,0,1-.572-.483l-4.737-4.4h0v4.147a.787.787,0,0,1-.983.894Z" transform="translate(137.029 41.939)"/>
  <path id="Pfad_278" data-name="Pfad 278" d="M180.868,66.645a.787.787,0,0,1-.894-.894V56.813c0-.59.286-.876.84-.876a.769.769,0,0,1,.858.876v1.108a3.182,3.182,0,0,1,1.341-1.52,4.648,4.648,0,0,1,2.145-.572.628.628,0,0,1,.715.7.732.732,0,0,1-.769.84h-.34a3.45,3.45,0,0,0-2.252.93,3.021,3.021,0,0,0-.769,2.2v5.2a.787.787,0,0,1-.876.947Z" transform="translate(141.751 43.975)"/>
  <path id="Pfad_279" data-name="Pfad 279" d="M189.2,66.662a4.988,4.988,0,0,1-5.363-5.363,6.06,6.06,0,0,1,.644-2.842,4.648,4.648,0,0,1,1.788-1.895,4.827,4.827,0,0,1,2.61-.679,4.2,4.2,0,0,1,3.325,1.359,5.542,5.542,0,0,1,1.2,3.736c0,.447-.25.661-.751.661H185.5a3.915,3.915,0,0,0,1.019,2.717,3.575,3.575,0,0,0,2.628.93,5.7,5.7,0,0,0,1.43-.179,4.183,4.183,0,0,0,1.412-.644.787.787,0,0,1,.822-.143.715.715,0,0,1,.358.608.822.822,0,0,1-.447.679,5.363,5.363,0,0,1-1.68.8,7.276,7.276,0,0,1-1.841.25Zm-.286-9.528a3.075,3.075,0,0,0-2.342.912,4,4,0,0,0-1,2.431H191.9a4.022,4.022,0,0,0-.822-2.467A2.717,2.717,0,0,0,188.914,57.134Z" transform="translate(144.789 44.012)"/>
  <path id="Pfad_280" data-name="Pfad 280" d="M191.556,55.5q-1.126,0-1.126-1.073c0-.7.375-1.055,1.126-1.055s1.144.358,1.144,1.055S192.325,55.5,191.556,55.5Zm0,13.05c-.572,0-.858-.322-.858-.947V58.822q0-.912.858-.912c.59,0,.876.3.876.912V67.6C192.432,68.225,192.146,68.547,191.556,68.547Z" transform="translate(149.994 42.037)"/>
  <path id="Pfad_281" data-name="Pfad 281" d="M197.165,66.654a7.956,7.956,0,0,1-1.931-.25,5.97,5.97,0,0,1-1.788-.8.715.715,0,0,1-.447-.572.751.751,0,0,1,.3-.59.679.679,0,0,1,.7,0,5.666,5.666,0,0,0,1.627.733,6.613,6.613,0,0,0,1.555.2,3.111,3.111,0,0,0,1.788-.447,1.466,1.466,0,0,0,.626-1.233,1.2,1.2,0,0,0-.411-.947,3.11,3.11,0,0,0-1.287-.554l-1.949-.429c-1.788-.375-2.664-1.287-2.664-2.735a2.7,2.7,0,0,1,1.126-2.27,4.737,4.737,0,0,1,2.95-.858,6.007,6.007,0,0,1,1.788.25,4.434,4.434,0,0,1,1.537.769.7.7,0,0,1,.322.626.8.8,0,0,1-.34.572.608.608,0,0,1-.7,0,5.2,5.2,0,0,0-1.3-.644,4.809,4.809,0,0,0-1.305-.2,2.914,2.914,0,0,0-1.788.483,1.466,1.466,0,0,0-.626,1.233c0,.8.536,1.323,1.591,1.537l1.949.411a4.38,4.38,0,0,1,2.092.965,2.288,2.288,0,0,1,.7,1.788,2.628,2.628,0,0,1-1.144,2.252,4.969,4.969,0,0,1-2.967.715Z" transform="translate(152.018 44.02)"/>
  <path id="Pfad_282" data-name="Pfad 282" d="M204.14,66.662a4.988,4.988,0,0,1-5.363-5.363,6.059,6.059,0,0,1,.644-2.842,4.648,4.648,0,0,1,1.788-1.895,4.791,4.791,0,0,1,2.592-.679,4.219,4.219,0,0,1,3.343,1.359,5.541,5.541,0,0,1,1.2,3.736c0,.447-.25.661-.751.661h-7.151a3.915,3.915,0,0,0,1.019,2.717,3.575,3.575,0,0,0,2.628.93,5.7,5.7,0,0,0,1.43-.179,4.344,4.344,0,0,0,1.412-.644.787.787,0,0,1,.822-.143.715.715,0,0,1,.357.608.822.822,0,0,1-.447.679,5.364,5.364,0,0,1-1.68.8,7.276,7.276,0,0,1-1.841.25Zm-.286-9.528a3.075,3.075,0,0,0-2.342.912,4,4,0,0,0-1,2.431h6.328A3.915,3.915,0,0,0,206,58.01a2.646,2.646,0,0,0-2.145-.876Z" transform="translate(156.556 44.012)"/>
  <path id="Pfad_283" data-name="Pfad 283" d="M209.3,66.678a8.206,8.206,0,0,1-1.949-.25,6.078,6.078,0,0,1-1.788-.8A.679.679,0,0,1,205.19,65a.733.733,0,0,1,.286-.59.715.715,0,0,1,.715,0,5.793,5.793,0,0,0,1.609.733,6.865,6.865,0,0,0,1.555.2,3.075,3.075,0,0,0,1.788-.447,1.412,1.412,0,0,0,.626-1.233,1.2,1.2,0,0,0-.393-.947,3.307,3.307,0,0,0-1.3-.554l-1.949-.429c-1.788-.375-2.664-1.287-2.664-2.735a2.682,2.682,0,0,1,1.144-2.27,4.7,4.7,0,0,1,2.95-.858,5.881,5.881,0,0,1,1.788.25,4.29,4.29,0,0,1,1.537.769.679.679,0,0,1,.34.626.8.8,0,0,1-.34.572.608.608,0,0,1-.7,0,5.524,5.524,0,0,0-1.305-.644,4.915,4.915,0,0,0-1.3-.2,3.021,3.021,0,0,0-1.788.483,1.448,1.448,0,0,0-.608,1.234c0,.8.518,1.323,1.591,1.537l1.949.411a4.237,4.237,0,0,1,2.074.965,2.235,2.235,0,0,1,.715,1.788,2.664,2.664,0,0,1-1.144,2.252A5.005,5.005,0,0,1,209.3,66.678Z" transform="translate(161.62 43.996)"/>
  <path id="Pfad_284" data-name="Pfad 284" d="M215.4,68.514a.822.822,0,0,1-.894-.93V54.195a.787.787,0,0,1,.876-.912c.59,0,.876.3.876.912V66.958H223.3c.554,0,.822.268.822.787s-.268.769-.822.769Z" transform="translate(168.948 41.964)"/>
  <path id="Pfad_285" data-name="Pfad 285" d="M224.5,68.617c-2.5,0-3.754-1.394-3.754-4.147V58.714a.894.894,0,1,1,1.788,0v5.738a3.128,3.128,0,0,0,.572,2.056,2.2,2.2,0,0,0,1.788.661,2.824,2.824,0,0,0,2.163-.894,3.307,3.307,0,0,0,.84-2.36v-5.2a.894.894,0,1,1,1.788,0v8.938c0,.59-.268.894-.822.894a.784.784,0,0,1-.858-.894V66.633a3.575,3.575,0,0,1-1.394,1.448,3.933,3.933,0,0,1-2.109.536Zm-1.162-13.229a1,1,0,1,1,0-1.984.894.894,0,0,1,1.019,1c0,.661-.34.983-1.019.983Zm3.754,0c-.679,0-1.019-.322-1.019-.983a.894.894,0,0,1,1.019-1,1,1,0,0,1,0,1.984Z" transform="translate(173.876 42.057)"/>
  <path id="Pfad_286" data-name="Pfad 286" d="M228.378,66.6c-.572,0-.858-.3-.858-.894V56.769c0-.59.268-.876.822-.876a.769.769,0,0,1,.858.876v1.108a3.575,3.575,0,0,1,1.466-1.484,4.6,4.6,0,0,1,2.127-.483c2.467,0,3.7,1.359,3.7,4.112v5.756c0,.59-.286.894-.858.894a.787.787,0,0,1-.876-.894v-5.72a3.182,3.182,0,0,0-.572-2.127,2.163,2.163,0,0,0-1.788-.679,3.057,3.057,0,0,0-2.288.894,3.307,3.307,0,0,0-.84,2.36v5.2a.787.787,0,0,1-.894.894Z" transform="translate(179.208 44.02)"/>
  <path id="Pfad_287" data-name="Pfad 287" d="M239.358,66.678a5.238,5.238,0,0,1-3.9-1.466,5.363,5.363,0,0,1-1.448-3.933,6.061,6.061,0,0,1,.644-2.842,4.648,4.648,0,0,1,1.788-1.895,4.863,4.863,0,0,1,2.61-.679,4.2,4.2,0,0,1,3.325,1.359,5.453,5.453,0,0,1,1.2,3.736c0,.447-.25.661-.751.661h-7.151a3.843,3.843,0,0,0,1.037,2.717,3.575,3.575,0,0,0,2.61.93,5.847,5.847,0,0,0,1.448-.179,4.344,4.344,0,0,0,1.412-.644A.769.769,0,0,1,243,64.3a.7.7,0,0,1,.34.608.822.822,0,0,1-.447.679,5.059,5.059,0,0,1-1.68.8,7.15,7.15,0,0,1-1.859.286Zm-.286-9.528a3.021,3.021,0,0,0-2.324.912,4.13,4.13,0,0,0-1.019,2.431h6.328a3.915,3.915,0,0,0-.822-2.467A2.681,2.681,0,0,0,239,57.15Z" transform="translate(184.318 43.996)"/>
  <path id="Pfad_288" data-name="Pfad 288" d="M245.994,68.734a4.272,4.272,0,0,1-2.163-.554,3.271,3.271,0,0,1-1.394-1.52v1.126c0,.59-.286.894-.858.894s-.858-.3-.858-.894V54.147c0-.59.286-.894.858-.894a.787.787,0,0,1,.876.894v5.81a3.4,3.4,0,0,1,1.394-1.448,4.255,4.255,0,0,1,2.145-.536,4.523,4.523,0,0,1,2.431.644,4.362,4.362,0,0,1,1.609,1.877,6.776,6.776,0,0,1,.572,2.878,6.686,6.686,0,0,1-.572,2.86,4.255,4.255,0,0,1-1.609,1.877A4.4,4.4,0,0,1,245.994,68.734Zm-.375-1.412a2.9,2.9,0,0,0,2.342-1.037,4.416,4.416,0,0,0,.876-2.968,4.469,4.469,0,0,0-.876-2.985,2.932,2.932,0,0,0-2.342-1.019,2.9,2.9,0,0,0-2.324,1.019,4.469,4.469,0,0,0-.894,2.985,4.416,4.416,0,0,0,.894,2.968,2.86,2.86,0,0,0,2.324,1.037Z" transform="translate(189.605 41.94)"/>
  <path id="Pfad_289" data-name="Pfad 289" d="M251.438,66.667c-2.5,0-3.754-1.394-3.754-4.147V56.764a.871.871,0,1,1,1.734,0V62.5a3.039,3.039,0,0,0,.572,2.056,2.2,2.2,0,0,0,1.788.661,2.86,2.86,0,0,0,2.163-.894,3.307,3.307,0,0,0,.84-2.36v-5.2a.894.894,0,1,1,1.788,0V65.7c0,.59-.286.894-.84.894a.784.784,0,0,1-.858-.894V64.683a3.378,3.378,0,0,1-1.376,1.448A3.969,3.969,0,0,1,251.438,66.667Z" transform="translate(195.084 44.007)"/>
  <path id="Pfad_290" data-name="Pfad 290" d="M255.338,66.645a.787.787,0,0,1-.894-.894V56.813c0-.59.286-.876.84-.876a.769.769,0,0,1,.858.876v1.108a3.182,3.182,0,0,1,1.341-1.52,4.647,4.647,0,0,1,2.145-.572.628.628,0,0,1,.715.7.733.733,0,0,1-.769.84h-.34a3.45,3.45,0,0,0-2.252.93,3.021,3.021,0,0,0-.769,2.2v5.2a.787.787,0,0,1-.876.947Z" transform="translate(200.408 43.975)"/>
  <path id="Pfad_291" data-name="Pfad 291" d="M263.6,70.456a10.03,10.03,0,0,1-2.217-.25,6.508,6.508,0,0,1-1.966-.858.715.715,0,0,1-.375-.465.75.75,0,0,1,0-.518.768.768,0,0,1,.375-.34.59.59,0,0,1,.518,0,7.151,7.151,0,0,0,1.788.8,7.024,7.024,0,0,0,1.7.215,2.789,2.789,0,0,0,3.093-3.182V64.074A3.575,3.575,0,0,1,265.1,65.63a4.183,4.183,0,0,1-2.181.572,4.541,4.541,0,0,1-2.485-.679,4.434,4.434,0,0,1-1.609-1.788,6.74,6.74,0,0,1,0-5.363,4.165,4.165,0,0,1,1.609-1.788,4.684,4.684,0,0,1,2.485-.644,4.38,4.38,0,0,1,2.181.536,3.325,3.325,0,0,1,1.394,1.5V56.852a.894.894,0,0,1,1.788,0v8.938a4.952,4.952,0,0,1-1.2,3.575,4.7,4.7,0,0,1-3.486,1.09Zm-.268-5.7a3.021,3.021,0,0,0,2.4-1.019,4.219,4.219,0,0,0,.876-2.771,4.13,4.13,0,0,0-.876-2.753,3.021,3.021,0,0,0-2.4-1.019,2.968,2.968,0,0,0-2.36,1.019,4.129,4.129,0,0,0-.876,2.753,4.218,4.218,0,0,0,.876,2.771A2.968,2.968,0,0,0,263.33,64.754Z" transform="translate(203.428 44.061)"/>
</svg>
